hintordertest_ddM.ufo
<glyph name="uni001E" format="2">
  <advance width="934"/>
  <unicode hex="001E"/>
  <outline>
    <contour>
      <point x="837" y="712" type="curve" smooth="yes"/>
      <point x="875" y="712"/>
      <point x="904" y="738"/>
      <point x="904" y="776" type="curve" smooth="yes"/>
      <point x="904" y="813"/>
      <point x="875" y="840"/>
      <point x="837" y="840" type="curve" smooth="yes"/>
      <point x="799" y="840"/>
      <point x="770" y="813"/>
      <point x="770" y="776" type="curve" smooth="yes"/>
      <point x="770" y="738"/>
      <point x="799" y="712"/>
    </contour>
    <contour>
      <point x="5" y="0" type="line"/>
      <point x="234" y="0" type="line"/>
      <point x="234" y="41" type="line"/>
      <point x="125" y="56" type="line"/>
      <point x="105" y="56" type="line"/>
      <point x="5" y="41" type="line"/>
    </contour>
    <contour>
      <point x="71" y="0" type="line"/>
      <point x="118" y="0" type="line"/>
      <point x="314" y="576" type="line"/>
      <point x="319" y="591" type="line"/>
      <point x="299" y="591" type="line"/>
      <point x="497" y="0" type="line"/>
      <point x="595" y="0" type="line"/>
      <point x="365" y="675" type="line"/>
      <point x="302" y="675" type="line"/>
    </contour>
    <contour>
      <point x="177" y="217" type="line"/>
      <point x="463" y="217" type="line"/>
      <point x="463" y="264" type="line"/>
      <point x="177" y="264" type="line"/>
    </contour>
    <contour>
      <point x="381" y="0" type="line"/>
      <point x="653" y="0" type="line"/>
      <point x="653" y="41" type="line"/>
      <point x="529" y="56" type="line"/>
      <point x="507" y="56" type="line"/>
      <point x="381" y="41" type="line"/>
    </contour>
  </outline>
</glyph>
<glyph name="uni001E" format="2">
  <advance width="1320"/>
  <unicode hex="001E"/>
  <outline>
    <contour>
      <point x="346" y="0" type="line"/>
      <point x="487" y="0" type="line"/>
      <point x="487" y="56" type="line"/>
      <point x="477" y="56" type="line"/>
      <point x="346" y="41" type="line"/>
    </contour>
    <contour>
      <point x="437" y="0" type="curve"/>
      <point x="538" y="0" type="line"/>
      <point x="535" y="103"/>
      <point x="535" y="207"/>
      <point x="535" y="325" type="curve" smooth="yes"/>
      <point x="535" y="359" type="line" smooth="yes"/>
      <point x="535" y="464"/>
      <point x="535" y="569"/>
      <point x="538" y="670" type="curve"/>
      <point x="437" y="670" type="line"/>
      <point x="440" y="567"/>
      <point x="440" y="462"/>
      <point x="440" y="359" type="curve" smooth="yes"/>
      <point x="440" y="310" type="line" smooth="yes"/>
      <point x="440" y="205"/>
      <point x="440" y="101"/>
    </contour>
    <contour>
      <point x="487" y="0" type="line"/>
      <point x="621" y="0" type="line" smooth="yes"/>
      <point x="813" y="0"/>
      <point x="888" y="92"/>
      <point x="888" y="183" type="curve" smooth="yes"/>
      <point x="888" y="270"/>
      <point x="823" y="339"/>
      <point x="666" y="352" type="curve"/>
      <point x="666" y="343" type="line"/>
      <point x="801" y="359"/>
      <point x="854" y="429"/>
      <point x="854" y="507" type="curve" smooth="yes"/>
      <point x="854" y="602"/>
      <point x="775" y="670"/>
      <point x="636" y="670" type="curve" smooth="yes"/>
      <point x="487" y="670" type="line"/>
      <point x="487" y="624" type="line"/>
      <point x="606" y="624" type="line" smooth="yes"/>
      <point x="708" y="624"/>
      <point x="760" y="591"/>
      <point x="760" y="500" type="curve" smooth="yes"/>
      <point x="760" y="409"/>
      <point x="708" y="369"/>
      <point x="587" y="369" type="curve" smooth="yes"/>
      <point x="487" y="369" type="line"/>
      <point x="487" y="323" type="line"/>
      <point x="590" y="323" type="line" smooth="yes"/>
      <point x="728" y="323"/>
      <point x="788" y="276"/>
      <point x="788" y="183" type="curve" smooth="yes"/>
      <point x="788" y="95"/>
      <point x="726" y="47"/>
      <point x="598" y="47" type="curve" smooth="yes"/>
      <point x="487" y="47" type="line"/>
    </contour>
    <contour>
      <point x="1066" y="702" type="line"/>
      <point x="1306" y="702" type="line"/>
      <point x="1306" y="765" type="line"/>
      <point x="1066" y="765" type="line"/>
    </contour>
    <contour>
      <point x="346" y="629" type="line"/>
      <point x="477" y="614" type="line"/>
      <point x="487" y="614" type="line"/>
      <point x="487" y="670" type="line"/>
      <point x="346" y="670" type="line"/>
    </contour>
  </outline>
</glyph>
<glyph name="uni001E" format="2">
  <advance width="944"/>
  <unicode hex="001E"/>
  <outline>
    <contour>
      <point x="809" y="760" type="curve" smooth="yes"/>
      <point x="772" y="760"/>
      <point x="752" y="791"/>
      <point x="752" y="822" type="curve" smooth="yes"/>
      <point x="752" y="853"/>
      <point x="773" y="883"/>
      <point x="809" y="883" type="curve" smooth="yes"/>
      <point x="846" y="883"/>
      <point x="866" y="853"/>
      <point x="866" y="822" type="curve" smooth="yes"/>
      <point x="866" y="791"/>
      <point x="845" y="760"/>
    </contour>
    <contour>
      <point x="809" y="720" type="curve" smooth="yes"/>
      <point x="863" y="720"/>
      <point x="914" y="758"/>
      <point x="914" y="822" type="curve" smooth="yes"/>
      <point x="914" y="887"/>
      <point x="863" y="923"/>
      <point x="809" y="923" type="curve" smooth="yes"/>
      <point x="755" y="923"/>
      <point x="704" y="884"/>
      <point x="704" y="822" type="curve" smooth="yes"/>
      <point x="704" y="757"/>
      <point x="755" y="720"/>
    </contour>
    <contour>
      <point x="386" y="-15" type="curve" smooth="yes"/>
      <point x="457" y="-15"/>
      <point x="526" y="-1"/>
      <point x="588" y="33" type="curve"/>
      <point x="592" y="178" type="line"/>
      <point x="530" y="178" type="line"/>
      <point x="505" y="30" type="line"/>
      <point x="567" y="44" type="line"/>
      <point x="567" y="99" type="line"/>
      <point x="511" y="52"/>
      <point x="448" y="35"/>
      <point x="391" y="35" type="curve" smooth="yes"/>
      <point x="254" y="35"/>
      <point x="156" y="139"/>
      <point x="156" y="335" type="curve" smooth="yes"/>
      <point x="156" y="530"/>
      <point x="264" y="635"/>
      <point x="398" y="635" type="curve" smooth="yes"/>
      <point x="446" y="635"/>
      <point x="501" y="618"/>
      <point x="557" y="566" type="curve"/>
      <point x="557" y="626" type="line"/>
      <point x="495" y="640" type="line"/>
      <point x="520" y="492" type="line"/>
      <point x="582" y="492" type="line"/>
      <point x="578" y="637" type="line"/>
      <point x="511" y="676"/>
      <point x="440" y="685"/>
      <point x="385" y="685" type="curve" smooth="yes"/>
      <point x="191" y="685"/>
      <point x="47" y="537"/>
      <point x="47" y="335" type="curve" smooth="yes"/>
      <point x="47" y="129"/>
      <point x="184" y="-15"/>
    </contour>
  </outline>
</glyph>
<glyph name="uni001E" format="2">
  <advance width="1323"/>
  <unicode hex="001E"/>
  <outline>
    <contour>
      <point x="310" y="0" type="line"/>
      <point x="592" y="0" type="line"/>
      <point x="592" y="41" type="line"/>
      <point x="461" y="56" type="line"/>
      <point x="441" y="56" type="line"/>
      <point x="310" y="41" type="line"/>
    </contour>
    <contour>
      <point x="401" y="0" type="curve"/>
      <point x="502" y="0" type="line"/>
      <point x="499" y="103"/>
      <point x="499" y="207"/>
      <point x="499" y="329" type="curve" smooth="yes"/>
      <point x="499" y="359" type="line" smooth="yes"/>
      <point x="499" y="464"/>
      <point x="499" y="569"/>
      <point x="502" y="670" type="curve"/>
      <point x="401" y="670" type="line"/>
      <point x="404" y="567"/>
      <point x="404" y="462"/>
      <point x="404" y="359" type="curve" smooth="yes"/>
      <point x="404" y="310" type="line" smooth="yes"/>
      <point x="404" y="205"/>
      <point x="404" y="101"/>
    </contour>
    <contour>
      <point x="451" y="319" type="line"/>
      <point x="869" y="319" type="line"/>
      <point x="869" y="366" type="line"/>
      <point x="451" y="366" type="line"/>
    </contour>
    <contour>
      <point x="1240" y="735" type="curve" smooth="yes"/>
      <point x="1203" y="735"/>
      <point x="1183" y="766"/>
      <point x="1183" y="797" type="curve" smooth="yes"/>
      <point x="1183" y="828"/>
      <point x="1204" y="858"/>
      <point x="1240" y="858" type="curve" smooth="yes"/>
      <point x="1277" y="858"/>
      <point x="1297" y="828"/>
      <point x="1297" y="797" type="curve" smooth="yes"/>
      <point x="1297" y="766"/>
      <point x="1276" y="735"/>
    </contour>
    <contour>
      <point x="1240" y="695" type="curve" smooth="yes"/>
      <point x="1294" y="695"/>
      <point x="1345" y="733"/>
      <point x="1345" y="797" type="curve" smooth="yes"/>
      <point x="1345" y="862"/>
      <point x="1294" y="898"/>
      <point x="1240" y="898" type="curve" smooth="yes"/>
      <point x="1186" y="898"/>
      <point x="1135" y="859"/>
      <point x="1135" y="797" type="curve" smooth="yes"/>
      <point x="1135" y="732"/>
      <point x="1186" y="695"/>
    </contour>
    <contour>
      <point x="728" y="0" type="line"/>
      <point x="1010" y="0" type="line"/>
      <point x="1010" y="41" type="line"/>
      <point x="880" y="56" type="line"/>
      <point x="859" y="56" type="line"/>
      <point x="728" y="41" type="line"/>
    </contour>
    <contour>
      <point x="819" y="0" type="curve"/>
      <point x="919" y="0" type="line"/>
      <point x="916" y="103"/>
      <point x="916" y="207"/>
      <point x="916" y="310" type="curve" smooth="yes"/>
      <point x="916" y="359" type="line" smooth="yes"/>
      <point x="916" y="464"/>
      <point x="916" y="569"/>
      <point x="919" y="670" type="curve"/>
      <point x="819" y="670" type="line"/>
      <point x="822" y="567"/>
      <point x="822" y="462"/>
      <point x="822" y="359" type="curve" smooth="yes"/>
      <point x="822" y="329" type="line" smooth="yes"/>
      <point x="822" y="205"/>
      <point x="822" y="101"/>
    </contour>
    <contour>
      <point x="310" y="629" type="line"/>
      <point x="441" y="614" type="line"/>
      <point x="461" y="614" type="line"/>
      <point x="592" y="629" type="line"/>
      <point x="592" y="670" type="line"/>
      <point x="310" y="670" type="line"/>
    </contour>
    <contour>
      <point x="728" y="629" type="line"/>
      <point x="859" y="614" type="line"/>
      <point x="880" y="614" type="line"/>
      <point x="1010" y="629" type="line"/>
      <point x="1010" y="670" type="line"/>
      <point x="728" y="670" type="line"/>
    </contour>
  </outline>
</glyph>
<glyph name="uni001E" format="2">
  <advance width="503"/>
  <unicode hex="001E"/>
  <outline>
    <contour>
      <point x="44" y="0" type="line"/>
      <point x="327" y="0" type="line"/>
      <point x="327" y="41" type="line"/>
      <point x="196" y="56" type="line"/>
      <point x="175" y="56" type="line"/>
      <point x="44" y="41" type="line"/>
    </contour>
    <contour>
      <point x="407" y="704" type="line"/>
      <point x="467" y="704" type="line"/>
      <point x="473" y="900" type="line"/>
      <point x="401" y="900" type="line"/>
    </contour>
    <contour>
      <point x="135" y="0" type="curve"/>
      <point x="236" y="0" type="line"/>
      <point x="233" y="103"/>
      <point x="233" y="207"/>
      <point x="233" y="310" type="curve" smooth="yes"/>
      <point x="233" y="359" type="line" smooth="yes"/>
      <point x="233" y="464"/>
      <point x="233" y="569"/>
      <point x="236" y="670" type="curve"/>
      <point x="135" y="670" type="line"/>
      <point x="138" y="567"/>
      <point x="138" y="462"/>
      <point x="138" y="359" type="curve" smooth="yes"/>
      <point x="138" y="310" type="line" smooth="yes"/>
      <point x="138" y="205"/>
      <point x="138" y="101"/>
    </contour>
    <contour>
      <point x="44" y="629" type="line"/>
      <point x="175" y="614" type="line"/>
      <point x="196" y="614" type="line"/>
      <point x="327" y="629" type="line"/>
      <point x="327" y="670" type="line"/>
      <point x="44" y="670" type="line"/>
    </contour>
  </outline>
</glyph>
<glyph name="uni001E" format="2">
  <advance width="1288"/>
  <unicode hex="001E"/>
  <outline>
    <contour>
      <point x="1071" y="702" type="curve" smooth="yes"/>
      <point x="1104" y="702"/>
      <point x="1131" y="726"/>
      <point x="1131" y="759" type="curve" smooth="yes"/>
      <point x="1131" y="791"/>
      <point x="1104" y="816"/>
      <point x="1071" y="816" type="curve" smooth="yes"/>
      <point x="1039" y="816"/>
      <point x="1012" y="791"/>
      <point x="1012" y="759" type="curve" smooth="yes"/>
      <point x="1012" y="726"/>
      <point x="1039" y="702"/>
    </contour>
    <contour>
      <point x="1281" y="702" type="curve" smooth="yes"/>
      <point x="1313" y="702"/>
      <point x="1340" y="726"/>
      <point x="1340" y="759" type="curve" smooth="yes"/>
      <point x="1340" y="791"/>
      <point x="1313" y="816"/>
      <point x="1281" y="816" type="curve" smooth="yes"/>
      <point x="1248" y="816"/>
      <point x="1221" y="791"/>
      <point x="1221" y="759" type="curve" smooth="yes"/>
      <point x="1221" y="726"/>
      <point x="1248" y="702"/>
    </contour>
    <contour>
      <point x="593" y="-133" type="curve" smooth="yes"/>
      <point x="639" y="-133"/>
      <point x="678" y="-117"/>
      <point x="712" y="-75" type="curve" smooth="yes"/>
      <point x="760" y="-17"/>
      <point x="769" y="41"/>
      <point x="769" y="215" type="curve" smooth="yes"/>
      <point x="769" y="360" type="line" smooth="yes"/>
      <point x="769" y="465"/>
      <point x="769" y="569"/>
      <point x="772" y="670" type="curve"/>
      <point x="675" y="670" type="line"/>
      <point x="680" y="178"/>
      <point x="680" y="205"/>
      <point x="680" y="122" type="curve" smooth="yes"/>
      <point x="680" y="-9"/>
      <point x="673" y="-55"/>
      <point x="648" y="-94" type="curve"/>
      <point x="648" y="-98" type="line"/>
      <point x="675" y="-98" type="line"/>
      <point x="675" y="-90" type="line"/>
      <point x="641" y="-64" type="line" smooth="yes"/>
      <point x="613" y="-43"/>
      <point x="592" y="-35"/>
      <point x="566" y="-35" type="curve" smooth="yes"/>
      <point x="535" y="-35"/>
      <point x="512" y="-47"/>
      <point x="506" y="-84" type="curve"/>
      <point x="515" y="-122"/>
      <point x="554" y="-133"/>
    </contour>
    <contour>
      <point x="570" y="629" type="line"/>
      <point x="711" y="614" type="line"/>
      <point x="732" y="614" type="line"/>
      <point x="863" y="629" type="line"/>
      <point x="863" y="670" type="line"/>
      <point x="570" y="670" type="line"/>
    </contour>
  </outline>
</glyph>
<glyph name="uni001E" format="2">
  <advance width="990"/>
  <unicode hex="001E"/>
  <outline>
    <contour>
      <point x="135" y="0" type="curve"/>
      <point x="232" y="0" type="line"/>
      <point x="229" y="103"/>
      <point x="229" y="207"/>
      <point x="229" y="285" type="curve" smooth="yes"/>
      <point x="229" y="359" type="line" smooth="yes"/>
      <point x="229" y="464"/>
      <point x="229" y="569"/>
      <point x="232" y="670" type="curve"/>
      <point x="135" y="670" type="line"/>
      <point x="138" y="567"/>
      <point x="138" y="462"/>
      <point x="138" y="359" type="curve" smooth="yes"/>
      <point x="138" y="310" type="line" smooth="yes"/>
      <point x="138" y="205"/>
      <point x="138" y="101"/>
    </contour>
    <contour>
      <point x="44" y="0" type="line"/>
      <point x="326" y="0" type="line"/>
      <point x="326" y="41" type="line"/>
      <point x="196" y="56" type="line"/>
      <point x="175" y="56" type="line"/>
      <point x="44" y="41" type="line"/>
    </contour>
    <contour>
      <point x="44" y="629" type="line"/>
      <point x="175" y="614" type="line"/>
      <point x="196" y="614" type="line"/>
      <point x="326" y="629" type="line"/>
      <point x="326" y="670" type="line"/>
      <point x="44" y="670" type="line"/>
    </contour>
    <contour>
      <point x="405" y="0" type="line"/>
      <point x="662" y="0" type="line"/>
      <point x="662" y="41" type="line"/>
      <point x="541" y="56" type="line"/>
      <point x="526" y="56" type="line"/>
      <point x="405" y="41" type="line"/>
    </contour>
    <contour>
      <point x="893" y="712" type="curve" smooth="yes"/>
      <point x="931" y="712"/>
      <point x="960" y="738"/>
      <point x="960" y="776" type="curve" smooth="yes"/>
      <point x="960" y="813"/>
      <point x="931" y="840"/>
      <point x="893" y="840" type="curve" smooth="yes"/>
      <point x="855" y="840"/>
      <point x="826" y="813"/>
      <point x="826" y="776" type="curve" smooth="yes"/>
      <point x="826" y="738"/>
      <point x="855" y="712"/>
    </contour>
    <contour>
      <point x="417" y="629" type="line"/>
      <point x="516" y="610" type="line"/>
      <point x="536" y="614" type="line"/>
      <point x="647" y="629" type="line"/>
      <point x="647" y="670" type="line"/>
      <point x="417" y="670" type="line"/>
    </contour>
    <contour>
      <point x="184" y="175" type="line"/>
      <point x="595" y="670" type="line"/>
      <point x="534" y="670" type="line"/>
      <point x="211" y="274" type="line"/>
      <point x="184" y="241" type="line"/>
      <point x="180" y="241" type="line"/>
    </contour>
    <contour>
      <point x="514" y="0" type="line"/>
      <point x="613" y="0" type="line"/>
      <point x="371" y="436" type="line"/>
      <point x="316" y="371" type="line"/>
    </contour>
  </outline>
</glyph>
<glyph name="uni001E" format="2">
  <advance width="1228"/>
  <unicode hex="001E"/>
  <outline>
    <contour>
      <point x="346" y="0" type="line"/>
      <point x="487" y="0" type="line"/>
      <point x="487" y="56" type="line"/>
      <point x="477" y="56" type="line"/>
      <point x="346" y="41" type="line"/>
    </contour>
    <contour>
      <point x="437" y="0" type="curve"/>
      <point x="538" y="0" type="line"/>
      <point x="535" y="101"/>
      <point x="535" y="205"/>
      <point x="535" y="290" type="curve" smooth="yes"/>
      <point x="535" y="359" type="line" smooth="yes"/>
      <point x="535" y="462"/>
      <point x="535" y="567"/>
      <point x="538" y="670" type="curve"/>
      <point x="437" y="670" type="line"/>
      <point x="440" y="569"/>
      <point x="440" y="464"/>
      <point x="440" y="359" type="curve" smooth="yes"/>
      <point x="440" y="309" type="line" smooth="yes"/>
      <point x="440" y="207"/>
      <point x="440" y="103"/>
    </contour>
    <contour>
      <point x="974" y="702" type="line"/>
      <point x="1214" y="702" type="line"/>
      <point x="1214" y="765" type="line"/>
      <point x="974" y="765" type="line"/>
    </contour>
    <contour>
      <point x="487" y="0" type="line"/>
      <point x="844" y="0" type="line"/>
      <point x="854" y="188" type="line"/>
      <point x="793" y="188" type="line"/>
      <point x="758" y="21" type="line"/>
      <point x="794" y="50" type="line"/>
      <point x="487" y="50" type="line"/>
    </contour>
    <contour>
      <point x="346" y="629" type="line"/>
      <point x="477" y="614" type="line"/>
      <point x="498" y="614" type="line"/>
      <point x="629" y="629" type="line"/>
      <point x="629" y="670" type="line"/>
      <point x="346" y="670" type="line"/>
    </contour>
  </outline>
</glyph>
<glyph name="uni001E" format="2">
  <advance width="1192"/>
  <unicode hex="001E"/>
  <outline>
    <contour>
      <point x="39" y="0" type="line"/>
      <point x="263" y="0" type="line"/>
      <point x="263" y="41" type="line"/>
      <point x="165" y="56" type="line"/>
      <point x="144" y="56" type="line"/>
      <point x="39" y="41" type="line"/>
    </contour>
    <contour>
      <point x="49" y="629" type="line"/>
      <point x="160" y="614" type="line"/>
      <point x="172" y="614" type="line"/>
      <point x="172" y="670" type="line"/>
      <point x="49" y="670" type="line"/>
    </contour>
    <contour>
      <point x="1057" y="742" type="curve" smooth="yes"/>
      <point x="1020" y="742"/>
      <point x="1000" y="773"/>
      <point x="1000" y="804" type="curve" smooth="yes"/>
      <point x="1000" y="835"/>
      <point x="1021" y="865"/>
      <point x="1057" y="865" type="curve" smooth="yes"/>
      <point x="1094" y="865"/>
      <point x="1114" y="835"/>
      <point x="1114" y="804" type="curve" smooth="yes"/>
      <point x="1114" y="773"/>
      <point x="1093" y="742"/>
    </contour>
    <contour>
      <point x="1057" y="702" type="curve" smooth="yes"/>
      <point x="1111" y="702"/>
      <point x="1162" y="740"/>
      <point x="1162" y="804" type="curve" smooth="yes"/>
      <point x="1162" y="869"/>
      <point x="1111" y="905"/>
      <point x="1057" y="905" type="curve" smooth="yes"/>
      <point x="1003" y="905"/>
      <point x="952" y="866"/>
      <point x="952" y="804" type="curve" smooth="yes"/>
      <point x="952" y="739"/>
      <point x="1003" y="702"/>
    </contour>
    <contour>
      <point x="129" y="0" type="line"/>
      <point x="181" y="0" type="line"/>
      <point x="181" y="369" type="line"/>
      <point x="172" y="670" type="line"/>
      <point x="129" y="670" type="line"/>
    </contour>
    <contour>
      <point x="404" y="0" type="line"/>
      <point x="454" y="0" type="line"/>
      <point x="687" y="605" type="line"/>
      <point x="700" y="638" type="line"/>
      <point x="708" y="638" type="line"/>
      <point x="708" y="670" type="line"/>
      <point x="660" y="670" type="line"/>
      <point x="439" y="97" type="line"/>
      <point x="431" y="76" type="line"/>
      <point x="465" y="76" type="line"/>
      <point x="224" y="670" type="line"/>
      <point x="139" y="670" type="line"/>
      <point x="139" y="638" type="line"/>
      <point x="145" y="638" type="line"/>
    </contour>
    <contour>
      <point x="585" y="0" type="line"/>
      <point x="857" y="0" type="line"/>
      <point x="857" y="41" type="line"/>
      <point x="727" y="56" type="line"/>
      <point x="705" y="56" type="line"/>
      <point x="585" y="41" type="line"/>
    </contour>
    <contour>
      <point x="668" y="0" type="curve"/>
      <point x="766" y="0" type="line"/>
      <point x="763" y="103"/>
      <point x="763" y="207"/>
      <point x="763" y="310" type="curve" smooth="yes"/>
      <point x="763" y="359" type="line" smooth="yes"/>
      <point x="763" y="464"/>
      <point x="763" y="569"/>
      <point x="766" y="670" type="curve"/>
      <point x="671" y="670" type="line"/>
      <point x="671" y="309" type="line" smooth="yes"/>
      <point x="671" y="205"/>
      <point x="671" y="101"/>
    </contour>
    <contour>
      <point x="716" y="614" type="line"/>
      <point x="727" y="614" type="line"/>
      <point x="857" y="629" type="line"/>
      <point x="857" y="670" type="line"/>
      <point x="716" y="670" type="line"/>
    </contour>
  </outline>
</glyph>
<glyph name="uni001E" format="2">
  <advance width="1529"/>
  <unicode hex="001E"/>
  <outline>
    <contour>
      <point x="790" y="-15" type="curve" smooth="yes"/>
      <point x="927" y="-15"/>
      <point x="1029" y="63"/>
      <point x="1029" y="274" type="curve" smooth="yes"/>
      <point x="1029" y="670" type="line"/>
      <point x="978" y="670" type="line"/>
      <point x="978" y="298" type="line" smooth="yes"/>
      <point x="978" y="121"/>
      <point x="920" y="56"/>
      <point x="807" y="56" type="curve" smooth="yes"/>
      <point x="705" y="56"/>
      <point x="641" y="110"/>
      <point x="641" y="281" type="curve" smooth="yes"/>
      <point x="641" y="360" type="line" smooth="yes"/>
      <point x="641" y="465"/>
      <point x="641" y="569"/>
      <point x="644" y="670" type="curve"/>
      <point x="544" y="670" type="line"/>
      <point x="547" y="567"/>
      <point x="547" y="463"/>
      <point x="547" y="360" type="curve" smooth="yes"/>
      <point x="547" y="252" type="line" smooth="yes"/>
      <point x="547" y="65"/>
      <point x="645" y="-15"/>
    </contour>
    <contour>
      <point x="462" y="629" type="line"/>
      <point x="593" y="614" type="line"/>
      <point x="614" y="614" type="line"/>
      <point x="745" y="629" type="line"/>
      <point x="745" y="670" type="line"/>
      <point x="462" y="670" type="line"/>
    </contour>
    <contour>
      <point x="1315" y="702" type="curve" smooth="yes"/>
      <point x="1348" y="702"/>
      <point x="1375" y="726"/>
      <point x="1375" y="759" type="curve" smooth="yes"/>
      <point x="1375" y="791"/>
      <point x="1348" y="816"/>
      <point x="1315" y="816" type="curve" smooth="yes"/>
      <point x="1283" y="816"/>
      <point x="1256" y="791"/>
      <point x="1256" y="759" type="curve" smooth="yes"/>
      <point x="1256" y="726"/>
      <point x="1283" y="702"/>
    </contour>
    <contour>
      <point x="1525" y="702" type="curve" smooth="yes"/>
      <point x="1557" y="702"/>
      <point x="1584" y="726"/>
      <point x="1584" y="759" type="curve" smooth="yes"/>
      <point x="1584" y="791"/>
      <point x="1557" y="816"/>
      <point x="1525" y="816" type="curve" smooth="yes"/>
      <point x="1492" y="816"/>
      <point x="1465" y="791"/>
      <point x="1465" y="759" type="curve" smooth="yes"/>
      <point x="1465" y="726"/>
      <point x="1492" y="702"/>
    </contour>
    <contour>
      <point x="876" y="629" type="line"/>
      <point x="986" y="615" type="line"/>
      <point x="1006" y="615" type="line"/>
      <point x="1116" y="629" type="line"/>
      <point x="1116" y="670" type="line"/>
      <point x="876" y="670" type="line"/>
    </contour>
  </outline>
</glyph>
<glyph name="uni001E" format="2">
  <advance width="984"/>
  <unicode hex="001E"/>
  <outline>
    <contour>
      <point x="10" y="0" type="line"/>
      <point x="239" y="0" type="line"/>
      <point x="239" y="41" type="line"/>
      <point x="139" y="55" type="line"/>
      <point x="119" y="55" type="line"/>
      <point x="10" y="41" type="line"/>
    </contour>
    <contour>
      <point x="849" y="742" type="curve" smooth="yes"/>
      <point x="812" y="742"/>
      <point x="792" y="773"/>
      <point x="792" y="804" type="curve" smooth="yes"/>
      <point x="792" y="835"/>
      <point x="813" y="865"/>
      <point x="849" y="865" type="curve" smooth="yes"/>
      <point x="886" y="865"/>
      <point x="906" y="835"/>
      <point x="906" y="804" type="curve" smooth="yes"/>
      <point x="906" y="773"/>
      <point x="885" y="742"/>
    </contour>
    <contour>
      <point x="849" y="702" type="curve" smooth="yes"/>
      <point x="903" y="702"/>
      <point x="954" y="740"/>
      <point x="954" y="804" type="curve" smooth="yes"/>
      <point x="954" y="869"/>
      <point x="903" y="905"/>
      <point x="849" y="905" type="curve" smooth="yes"/>
      <point x="795" y="905"/>
      <point x="744" y="866"/>
      <point x="744" y="804" type="curve" smooth="yes"/>
      <point x="744" y="739"/>
      <point x="795" y="702"/>
    </contour>
    <contour>
      <point x="70" y="0" type="line"/>
      <point x="128" y="0" type="line"/>
      <point x="320" y="303" type="line"/>
      <point x="336" y="328" type="line"/>
      <point x="343" y="328" type="line"/>
      <point x="303" y="354" type="line"/>
    </contour>
    <contour>
      <point x="356" y="0" type="line"/>
      <point x="639" y="0" type="line"/>
      <point x="639" y="41" type="line"/>
      <point x="508" y="56" type="line"/>
      <point x="486" y="56" type="line"/>
      <point x="356" y="41" type="line"/>
    </contour>
    <contour>
      <point x="354" y="346" type="line"/>
      <point x="563" y="670" type="line"/>
      <point x="506" y="670" type="line"/>
      <point x="332" y="390" type="line"/>
      <point x="321" y="373" type="line"/>
      <point x="316" y="373" type="line"/>
    </contour>
    <contour>
      <point x="479" y="0" type="line"/>
      <point x="584" y="0" type="line"/>
      <point x="181" y="670" type="line"/>
      <point x="76" y="670" type="line"/>
    </contour>
    <contour>
      <point x="19" y="629" type="line"/>
      <point x="148" y="614" type="line"/>
      <point x="170" y="614" type="line"/>
      <point x="300" y="629" type="line"/>
      <point x="300" y="670" type="line"/>
      <point x="19" y="670" type="line"/>
    </contour>
    <contour>
      <point x="388" y="629" type="line"/>
      <point x="488" y="615" type="line"/>
      <point x="508" y="615" type="line"/>
      <point x="617" y="629" type="line"/>
      <point x="617" y="670" type="line"/>
      <point x="388" y="670" type="line"/>
    </contour>
  </outline>
</glyph>
<glyph name="uni001E" format="2">
  <advance width="1030"/>
  <unicode hex="001E"/>
  <outline>
    <contour>
      <point x="731" y="715" type="curve" smooth="yes"/>
      <point x="764" y="715"/>
      <point x="791" y="739"/>
      <point x="791" y="772" type="curve" smooth="yes"/>
      <point x="791" y="804"/>
      <point x="764" y="829"/>
      <point x="731" y="829" type="curve" smooth="yes"/>
      <point x="699" y="829"/>
      <point x="672" y="804"/>
      <point x="672" y="772" type="curve" smooth="yes"/>
      <point x="672" y="739"/>
      <point x="699" y="715"/>
    </contour>
    <contour>
      <point x="941" y="715" type="curve" smooth="yes"/>
      <point x="973" y="715"/>
      <point x="1000" y="739"/>
      <point x="1000" y="772" type="curve" smooth="yes"/>
      <point x="1000" y="804"/>
      <point x="973" y="829"/>
      <point x="941" y="829" type="curve" smooth="yes"/>
      <point x="908" y="829"/>
      <point x="881" y="804"/>
      <point x="881" y="772" type="curve" smooth="yes"/>
      <point x="881" y="739"/>
      <point x="908" y="715"/>
    </contour>
    <contour>
      <point x="20" y="0" type="line"/>
      <point x="523" y="0" type="line"/>
      <point x="531" y="178" type="line"/>
      <point x="470" y="178" type="line"/>
      <point x="437" y="21" type="line"/>
      <point x="473" y="50" type="line"/>
      <point x="298" y="50" type="line"/>
      <point x="126" y="50" type="line"/>
      <point x="126" y="62" type="line"/>
      <point x="116" y="25" type="line"/>
      <point x="509" y="635" type="line"/>
      <point x="509" y="670" type="line"/>
      <point x="38" y="670" type="line"/>
      <point x="30" y="492" type="line"/>
      <point x="91" y="492" type="line"/>
      <point x="124" y="649" type="line"/>
      <point x="88" y="620" type="line"/>
      <point x="246" y="620" type="line"/>
      <point x="404" y="620" type="line"/>
      <point x="404" y="605" type="line"/>
      <point x="414" y="645" type="line"/>
      <point x="20" y="36" type="line"/>
    </contour>
  </outline>
</glyph>
<glyph name="uni001E" format="2">
  <advance width="1052"/>
  <unicode hex="001E"/>
  <outline>
    <contour>
      <point x="969" y="555" type="curve" smooth="yes"/>
      <point x="932" y="555"/>
      <point x="912" y="586"/>
      <point x="912" y="617" type="curve" smooth="yes"/>
      <point x="912" y="648"/>
      <point x="933" y="678"/>
      <point x="969" y="678" type="curve" smooth="yes"/>
      <point x="1006" y="678"/>
      <point x="1026" y="648"/>
      <point x="1026" y="617" type="curve" smooth="yes"/>
      <point x="1026" y="586"/>
      <point x="1005" y="555"/>
    </contour>
    <contour>
      <point x="969" y="515" type="curve" smooth="yes"/>
      <point x="1023" y="515"/>
      <point x="1074" y="553"/>
      <point x="1074" y="617" type="curve" smooth="yes"/>
      <point x="1074" y="682"/>
      <point x="1023" y="718"/>
      <point x="969" y="718" type="curve" smooth="yes"/>
      <point x="915" y="718"/>
      <point x="864" y="679"/>
      <point x="864" y="617" type="curve" smooth="yes"/>
      <point x="864" y="552"/>
      <point x="915" y="515"/>
    </contour>
    <contour>
      <point x="534" y="-13" type="curve" smooth="yes"/>
      <point x="627" y="-13"/>
      <point x="680" y="28"/>
      <point x="719" y="100" type="curve"/>
      <point x="697" y="118" type="line"/>
      <point x="652" y="66"/>
      <point x="607" y="52"/>
      <point x="557" y="52" type="curve" smooth="yes"/>
      <point x="467" y="52"/>
      <point x="395" y="108"/>
      <point x="395" y="242" type="curve" smooth="yes"/>
      <point x="395" y="373"/>
      <point x="457" y="442"/>
      <point x="542" y="442" type="curve" smooth="yes"/>
      <point x="570" y="442"/>
      <point x="604" y="435"/>
      <point x="638" y="417" type="curve"/>
      <point x="590" y="455" type="line"/>
      <point x="614" y="368" type="line" smooth="yes"/>
      <point x="621" y="340"/>
      <point x="635" y="320"/>
      <point x="669" y="320" type="curve" smooth="yes"/>
      <point x="694" y="320"/>
      <point x="710" y="332"/>
      <point x="715" y="358" type="curve"/>
      <point x="702" y="432"/>
      <point x="628" y="488"/>
      <point x="538" y="488" type="curve" smooth="yes"/>
      <point x="417" y="488"/>
      <point x="307" y="393"/>
      <point x="307" y="232" type="curve" smooth="yes"/>
      <point x="307" y="79"/>
      <point x="391" y="-13"/>
    </contour>
  </outline>
</glyph>
<glyph name="uni001E" format="2">
  <advance width="1326"/>
  <unicode hex="001E"/>
  <outline>
    <contour>
      <point x="1109" y="555" type="curve" smooth="yes"/>
      <point x="1142" y="555"/>
      <point x="1169" y="579"/>
      <point x="1169" y="612" type="curve" smooth="yes"/>
      <point x="1169" y="644"/>
      <point x="1142" y="669"/>
      <point x="1109" y="669" type="curve" smooth="yes"/>
      <point x="1077" y="669"/>
      <point x="1050" y="644"/>
      <point x="1050" y="612" type="curve" smooth="yes"/>
      <point x="1050" y="579"/>
      <point x="1077" y="555"/>
    </contour>
    <contour>
      <point x="1319" y="555" type="curve" smooth="yes"/>
      <point x="1351" y="555"/>
      <point x="1378" y="579"/>
      <point x="1378" y="612" type="curve" smooth="yes"/>
      <point x="1378" y="644"/>
      <point x="1351" y="669"/>
      <point x="1319" y="669" type="curve" smooth="yes"/>
      <point x="1286" y="669"/>
      <point x="1259" y="644"/>
      <point x="1259" y="612" type="curve" smooth="yes"/>
      <point x="1259" y="579"/>
      <point x="1286" y="555"/>
    </contour>
    <contour>
      <point x="693" y="-13" type="curve" smooth="yes"/>
      <point x="795" y="-13"/>
      <point x="844" y="31"/>
      <point x="885" y="100" type="curve"/>
      <point x="864" y="117" type="line"/>
      <point x="824" y="71"/>
      <point x="778" y="52"/>
      <point x="716" y="52" type="curve" smooth="yes"/>
      <point x="612" y="52"/>
      <point x="549" y="119"/>
      <point x="549" y="244" type="curve" smooth="yes"/>
      <point x="549" y="389"/>
      <point x="622" y="442"/>
      <point x="690" y="442" type="curve" smooth="yes"/>
      <point x="754" y="442"/>
      <point x="794" y="403"/>
      <point x="794" y="334" type="curve" smooth="yes"/>
      <point x="794" y="305"/>
      <point x="783" y="282"/>
      <point x="729" y="282" type="curve" smooth="yes"/>
      <point x="500" y="282" type="line"/>
      <point x="500" y="240" type="line"/>
      <point x="870" y="240" type="line"/>
      <point x="874" y="253"/>
      <point x="877" y="273"/>
      <point x="877" y="296" type="curve" smooth="yes"/>
      <point x="877" y="417"/>
      <point x="795" y="488"/>
      <point x="690" y="488" type="curve" smooth="yes"/>
      <point x="565" y="488"/>
      <point x="461" y="386"/>
      <point x="461" y="232" type="curve" smooth="yes"/>
      <point x="461" y="78"/>
      <point x="552" y="-13"/>
    </contour>
  </outline>
</glyph>
<glyph name="uni001E" format="2">
  <advance width="686"/>
  <unicode hex="001E"/>
  <outline>
    <contour>
      <point x="6" y="-250" type="curve" smooth="yes"/>
      <point x="65" y="-250"/>
      <point x="95" y="-230"/>
      <point x="130" y="-195" type="curve" smooth="yes"/>
      <point x="184" y="-141"/>
      <point x="192" y="-63"/>
      <point x="192" y="100" type="curve" smooth="yes"/>
      <point x="192" y="342" type="line"/>
      <point x="195" y="478" type="line"/>
      <point x="180" y="488" type="line"/>
      <point x="29" y="427" type="line"/>
      <point x="29" y="392" type="line"/>
      <point x="108" y="383" type="line"/>
      <point x="110" y="343"/>
      <point x="111" y="312"/>
      <point x="111" y="257" type="curve" smooth="yes"/>
      <point x="111" y="102" type="line" smooth="yes"/>
      <point x="111" y="-48"/>
      <point x="106" y="-129"/>
      <point x="90" y="-171" type="curve" smooth="yes"/>
      <point x="81" y="-194"/>
      <point x="70" y="-205"/>
      <point x="56" y="-211" type="curve"/>
      <point x="56" y="-220" type="line"/>
      <point x="96" y="-220" type="line"/>
      <point x="96" y="-215" type="line"/>
      <point x="51" y="-181" type="line" smooth="yes"/>
      <point x="25" y="-161"/>
      <point x="3" y="-151"/>
      <point x="-24" y="-151" type="curve" smooth="yes"/>
      <point x="-53" y="-151"/>
      <point x="-74" y="-164"/>
      <point x="-83" y="-192" type="curve"/>
      <point x="-82" y="-218"/>
      <point x="-54" y="-250"/>
    </contour>
    <contour>
      <point x="387" y="825" type="curve" smooth="yes"/>
      <point x="420" y="825"/>
      <point x="447" y="849"/>
      <point x="447" y="882" type="curve" smooth="yes"/>
      <point x="447" y="914"/>
      <point x="420" y="939"/>
      <point x="387" y="939" type="curve" smooth="yes"/>
      <point x="355" y="939"/>
      <point x="328" y="914"/>
      <point x="328" y="882" type="curve" smooth="yes"/>
      <point x="328" y="849"/>
      <point x="355" y="825"/>
    </contour>
    <contour>
      <point x="597" y="825" type="curve" smooth="yes"/>
      <point x="629" y="825"/>
      <point x="656" y="849"/>
      <point x="656" y="882" type="curve" smooth="yes"/>
      <point x="656" y="914"/>
      <point x="629" y="939"/>
      <point x="597" y="939" type="curve" smooth="yes"/>
      <point x="564" y="939"/>
      <point x="537" y="914"/>
      <point x="537" y="882" type="curve" smooth="yes"/>
      <point x="537" y="849"/>
      <point x="564" y="825"/>
    </contour>
    <contour>
      <point x="148" y="589" type="curve" smooth="yes"/>
      <point x="186" y="589"/>
      <point x="215" y="615"/>
      <point x="215" y="653" type="curve" smooth="yes"/>
      <point x="215" y="690"/>
      <point x="186" y="717"/>
      <point x="148" y="717" type="curve" smooth="yes"/>
      <point x="110" y="717"/>
      <point x="81" y="690"/>
      <point x="81" y="653" type="curve" smooth="yes"/>
      <point x="81" y="615"/>
      <point x="110" y="589"/>
    </contour>
  </outline>
</glyph>
<glyph name="uni001E" format="2">
  <advance width="1079"/>
  <unicode hex="001E"/>
  <outline>
    <contour>
      <point x="235" y="0" type="line"/>
      <point x="483" y="0" type="line"/>
      <point x="483" y="36" type="line"/>
      <point x="370" y="56" type="line"/>
      <point x="347" y="56" type="line"/>
      <point x="235" y="36" type="line"/>
    </contour>
    <contour>
      <point x="1024" y="780" type="curve" smooth="yes"/>
      <point x="1062" y="780"/>
      <point x="1091" y="806"/>
      <point x="1091" y="844" type="curve" smooth="yes"/>
      <point x="1091" y="881"/>
      <point x="1062" y="908"/>
      <point x="1024" y="908" type="curve" smooth="yes"/>
      <point x="986" y="908"/>
      <point x="957" y="881"/>
      <point x="957" y="844" type="curve" smooth="yes"/>
      <point x="957" y="806"/>
      <point x="986" y="780"/>
    </contour>
    <contour>
      <point x="314" y="0" type="curve"/>
      <point x="404" y="0" type="line"/>
      <point x="402" y="68"/>
      <point x="401" y="141"/>
      <point x="401" y="210" type="curve" smooth="yes"/>
      <point x="401" y="589" type="line"/>
      <point x="405" y="732" type="line"/>
      <point x="391" y="740" type="line"/>
      <point x="235" y="695" type="line"/>
      <point x="235" y="659" type="line"/>
      <point x="317" y="649" type="line"/>
      <point x="317" y="210" type="line" smooth="yes"/>
      <point x="317" y="141"/>
      <point x="316" y="68"/>
    </contour>
    <contour>
      <point x="359" y="137" type="line"/>
      <point x="689" y="475" type="line"/>
      <point x="627" y="475" type="line"/>
      <point x="494" y="337" type="line"/>
      <point x="362" y="199" type="line"/>
      <point x="359" y="199" type="line"/>
    </contour>
    <contour>
      <point x="621" y="0" type="line"/>
      <point x="757" y="0" type="line"/>
      <point x="757" y="36" type="line"/>
      <point x="691" y="48" type="line"/>
      <point x="516" y="326" type="line"/>
      <point x="456" y="266" type="line"/>
    </contour>
    <contour>
      <point x="498" y="436" type="line"/>
      <point x="590" y="413" type="line"/>
      <point x="620" y="419" type="line"/>
      <point x="731" y="436" type="line"/>
      <point x="731" y="475" type="line"/>
      <point x="498" y="475" type="line"/>
    </contour>
  </outline>
</glyph>
<glyph name="uni001E" format="2">
  <advance width="1539"/>
  <unicode hex="001E"/>
  <outline>
    <contour>
      <point x="311" y="0" type="line"/>
      <point x="543" y="0" type="line"/>
      <point x="543" y="36" type="line"/>
      <point x="443" y="56" type="line"/>
      <point x="420" y="56" type="line"/>
      <point x="311" y="36" type="line"/>
    </contour>
    <contour>
      <point x="1453" y="555" type="curve" smooth="yes"/>
      <point x="1416" y="555"/>
      <point x="1396" y="586"/>
      <point x="1396" y="617" type="curve" smooth="yes"/>
      <point x="1396" y="648"/>
      <point x="1417" y="678"/>
      <point x="1453" y="678" type="curve" smooth="yes"/>
      <point x="1490" y="678"/>
      <point x="1510" y="648"/>
      <point x="1510" y="617" type="curve" smooth="yes"/>
      <point x="1510" y="586"/>
      <point x="1489" y="555"/>
    </contour>
    <contour>
      <point x="1453" y="515" type="curve" smooth="yes"/>
      <point x="1507" y="515"/>
      <point x="1558" y="553"/>
      <point x="1558" y="617" type="curve" smooth="yes"/>
      <point x="1558" y="682"/>
      <point x="1507" y="718"/>
      <point x="1453" y="718" type="curve" smooth="yes"/>
      <point x="1399" y="718"/>
      <point x="1348" y="679"/>
      <point x="1348" y="617" type="curve" smooth="yes"/>
      <point x="1348" y="552"/>
      <point x="1399" y="515"/>
    </contour>
    <contour>
      <point x="384" y="0" type="curve"/>
      <point x="475" y="0" type="line"/>
      <point x="473" y="45"/>
      <point x="472" y="148"/>
      <point x="472" y="210" type="curve" smooth="yes"/>
      <point x="472" y="360" type="line"/>
      <point x="472" y="362" type="line"/>
      <point x="460" y="478" type="line"/>
      <point x="445" y="488" type="line"/>
      <point x="305" y="427" type="line"/>
      <point x="305" y="392" type="line"/>
      <point x="384" y="383" type="line"/>
      <point x="386" y="343"/>
      <point x="387" y="313"/>
      <point x="387" y="258" type="curve" smooth="yes"/>
      <point x="387" y="210" type="line" smooth="yes"/>
      <point x="387" y="148"/>
      <point x="386" y="45"/>
    </contour>
    <contour>
      <point x="611" y="0" type="line"/>
      <point x="843" y="0" type="line"/>
      <point x="843" y="36" type="line"/>
      <point x="743" y="56" type="line"/>
      <point x="720" y="56" type="line"/>
      <point x="611" y="36" type="line"/>
    </contour>
    <contour>
      <point x="684" y="0" type="curve"/>
      <point x="774" y="0" type="line"/>
      <point x="772" y="45"/>
      <point x="771" y="146"/>
      <point x="771" y="210" type="curve" smooth="yes"/>
      <point x="771" y="303" type="line" smooth="yes"/>
      <point x="771" y="434"/>
      <point x="730" y="488"/>
      <point x="643" y="488" type="curve" smooth="yes"/>
      <point x="575" y="488"/>
      <point x="502" y="442"/>
      <point x="455" y="381" type="curve"/>
      <point x="446" y="381" type="line"/>
      <point x="462" y="347" type="line"/>
      <point x="516" y="395"/>
      <point x="556" y="416"/>
      <point x="605" y="416" type="curve" smooth="yes"/>
      <point x="664" y="416"/>
      <point x="687" y="386"/>
      <point x="687" y="295" type="curve" smooth="yes"/>
      <point x="687" y="210" type="line" smooth="yes"/>
      <point x="687" y="146"/>
      <point x="686" y="45"/>
    </contour>
    <contour>
      <point x="911" y="0" type="line"/>
      <point x="1143" y="0" type="line"/>
      <point x="1143" y="36" type="line"/>
      <point x="1043" y="56" type="line"/>
      <point x="1020" y="56" type="line"/>
      <point x="911" y="36" type="line"/>
    </contour>
    <contour>
      <point x="984" y="0" type="curve"/>
      <point x="1074" y="0" type="line"/>
      <point x="1072" y="45"/>
      <point x="1071" y="146"/>
      <point x="1071" y="210" type="curve" smooth="yes"/>
      <point x="1071" y="313" type="line" smooth="yes"/>
      <point x="1071" y="437"/>
      <point x="1024" y="488"/>
      <point x="943" y="488" type="curve" smooth="yes"/>
      <point x="873" y="488"/>
      <point x="803" y="451"/>
      <point x="750" y="379" type="curve"/>
      <point x="742" y="379" type="line"/>
      <point x="762" y="347" type="line"/>
      <point x="817" y="398"/>
      <point x="859" y="416"/>
      <point x="903" y="416" type="curve" smooth="yes"/>
      <point x="961" y="416"/>
      <point x="987" y="390"/>
      <point x="987" y="297" type="curve" smooth="yes"/>
      <point x="987" y="210" type="line" smooth="yes"/>
      <point x="987" y="146"/>
      <point x="986" y="45"/>
    </contour>
  </outline>
</glyph>
<glyph name="uni001E" format="2">
  <advance width="1383"/>
  <unicode hex="001E"/>
  <outline>
    <contour>
      <point x="1168" y="555" type="curve" smooth="yes"/>
      <point x="1201" y="555"/>
      <point x="1228" y="579"/>
      <point x="1228" y="612" type="curve" smooth="yes"/>
      <point x="1228" y="644"/>
      <point x="1201" y="669"/>
      <point x="1168" y="669" type="curve" smooth="yes"/>
      <point x="1136" y="669"/>
      <point x="1109" y="644"/>
      <point x="1109" y="612" type="curve" smooth="yes"/>
      <point x="1109" y="579"/>
      <point x="1136" y="555"/>
    </contour>
    <contour>
      <point x="1378" y="555" type="curve" smooth="yes"/>
      <point x="1410" y="555"/>
      <point x="1437" y="579"/>
      <point x="1437" y="612" type="curve" smooth="yes"/>
      <point x="1437" y="644"/>
      <point x="1410" y="669"/>
      <point x="1378" y="669" type="curve" smooth="yes"/>
      <point x="1345" y="669"/>
      <point x="1318" y="644"/>
      <point x="1318" y="612" type="curve" smooth="yes"/>
      <point x="1318" y="579"/>
      <point x="1345" y="555"/>
    </contour>
    <contour>
      <point x="690" y="-13" type="curve" smooth="yes"/>
      <point x="806" y="-13"/>
      <point x="920" y="70"/>
      <point x="920" y="235" type="curve" smooth="yes"/>
      <point x="920" y="401"/>
      <point x="805" y="488"/>
      <point x="690" y="488" type="curve" smooth="yes"/>
      <point x="574" y="488"/>
      <point x="461" y="401"/>
      <point x="461" y="235" type="curve" smooth="yes"/>
      <point x="461" y="70"/>
      <point x="573" y="-13"/>
    </contour>
    <contour>
      <point x="690" y="32" type="curve" smooth="yes"/>
      <point x="603" y="32"/>
      <point x="556" y="101"/>
      <point x="556" y="235" type="curve" smooth="yes"/>
      <point x="556" y="370"/>
      <point x="603" y="442"/>
      <point x="690" y="442" type="curve" smooth="yes"/>
      <point x="776" y="442"/>
      <point x="825" y="370"/>
      <point x="825" y="235" type="curve" smooth="yes"/>
      <point x="825" y="101"/>
      <point x="776" y="32"/>
    </contour>
  </outline>
</glyph>
<glyph name="uni001E" format="2">
  <advance width="1099"/>
  <unicode hex="001E"/>
  <outline>
    <contour>
      <point x="844" y="686" type="line"/>
      <point x="1084" y="686" type="line"/>
      <point x="1084" y="749" type="line"/>
      <point x="844" y="749" type="line"/>
    </contour>
    <contour>
      <point x="323" y="0" type="line"/>
      <point x="694" y="0" type="line"/>
      <point x="694" y="36" type="line"/>
      <point x="550" y="60" type="line"/>
      <point x="466" y="60" type="line"/>
      <point x="323" y="36" type="line"/>
    </contour>
    <contour>
      <point x="463" y="0" type="curve"/>
      <point x="553" y="0" type="line"/>
      <point x="551" y="70"/>
      <point x="550" y="141"/>
      <point x="550" y="211" type="curve" smooth="yes"/>
      <point x="550" y="502" type="line"/>
      <point x="554" y="645" type="line"/>
      <point x="540" y="655" type="line"/>
      <point x="334" y="602" type="line"/>
      <point x="334" y="561" type="line"/>
      <point x="466" y="572" type="line"/>
      <point x="466" y="211" type="line" smooth="yes"/>
      <point x="466" y="141"/>
      <point x="465" y="70"/>
    </contour>
  </outline>
</glyph>
<glyph name="uni001E" format="2">
  <advance width="780"/>
  <unicode hex="001E"/>
  <outline>
    <contour>
      <point x="708" y="570" type="line"/>
      <point x="768" y="570" type="line"/>
      <point x="774" y="766" type="line"/>
      <point x="702" y="766" type="line"/>
    </contour>
    <contour>
      <point x="344" y="-13" type="curve" smooth="yes"/>
      <point x="473" y="-13"/>
      <point x="539" y="54"/>
      <point x="539" y="130" type="curve" smooth="yes"/>
      <point x="539" y="193"/>
      <point x="501" y="240"/>
      <point x="401" y="277" type="curve"/>
      <point x="370" y="288" type="line" smooth="yes"/>
      <point x="302" y="313"/>
      <point x="278" y="330"/>
      <point x="278" y="374" type="curve" smooth="yes"/>
      <point x="278" y="415"/>
      <point x="310" y="442"/>
      <point x="371" y="442" type="curve" smooth="yes"/>
      <point x="407" y="442"/>
      <point x="441" y="429"/>
      <point x="473" y="404" type="curve"/>
      <point x="473" y="447" type="line"/>
      <point x="436" y="447" type="line"/>
      <point x="456" y="345" type="line"/>
      <point x="508" y="345" type="line"/>
      <point x="512" y="447" type="line"/>
      <point x="469" y="473"/>
      <point x="426" y="488"/>
      <point x="372" y="488" type="curve" smooth="yes"/>
      <point x="260" y="488"/>
      <point x="198" y="420"/>
      <point x="198" y="347" type="curve" smooth="yes"/>
      <point x="198" y="279"/>
      <point x="246" y="239"/>
      <point x="319" y="212" type="curve" smooth="yes"/>
      <point x="365" y="195" type="line"/>
      <point x="428" y="173"/>
      <point x="458" y="151"/>
      <point x="458" y="108" type="curve" smooth="yes"/>
      <point x="458" y="63"/>
      <point x="422" y="32"/>
      <point x="346" y="32" type="curve" smooth="yes"/>
      <point x="301" y="32"/>
      <point x="264" y="44"/>
      <point x="231" y="69" type="curve"/>
      <point x="231" y="16" type="line"/>
      <point x="272" y="16" type="line"/>
      <point x="246" y="135" type="line"/>
      <point x="191" y="135" type="line"/>
      <point x="195" y="25" type="line"/>
      <point x="244" y="0"/>
      <point x="288" y="-13"/>
    </contour>
  </outline>
</glyph>
<glyph name="uni001E" format="2">
  <advance width="802"/>
  <unicode hex="001E"/>
  <outline>
    <contour>
      <point x="134" y="422" type="line"/>
      <point x="313" y="422" type="line"/>
      <point x="313" y="475" type="line"/>
      <point x="134" y="475" type="line"/>
    </contour>
    <contour>
      <point x="503" y="715" type="curve" smooth="yes"/>
      <point x="536" y="715"/>
      <point x="563" y="739"/>
      <point x="563" y="772" type="curve" smooth="yes"/>
      <point x="563" y="804"/>
      <point x="536" y="829"/>
      <point x="503" y="829" type="curve" smooth="yes"/>
      <point x="471" y="829"/>
      <point x="444" y="804"/>
      <point x="444" y="772" type="curve" smooth="yes"/>
      <point x="444" y="739"/>
      <point x="471" y="715"/>
    </contour>
    <contour>
      <point x="713" y="715" type="curve" smooth="yes"/>
      <point x="745" y="715"/>
      <point x="772" y="739"/>
      <point x="772" y="772" type="curve" smooth="yes"/>
      <point x="772" y="804"/>
      <point x="745" y="829"/>
      <point x="713" y="829" type="curve" smooth="yes"/>
      <point x="680" y="829"/>
      <point x="653" y="804"/>
      <point x="653" y="772" type="curve" smooth="yes"/>
      <point x="653" y="739"/>
      <point x="680" y="715"/>
    </contour>
    <contour>
      <point x="205" y="-13" type="curve" smooth="yes"/>
      <point x="256" y="-13"/>
      <point x="297" y="6"/>
      <point x="323" y="40" type="curve"/>
      <point x="299" y="66" type="line"/>
      <point x="274" y="48"/>
      <point x="254" y="39"/>
      <point x="232" y="39" type="curve" smooth="yes"/>
      <point x="198" y="39"/>
      <point x="177" y="61"/>
      <point x="177" y="112" type="curve" smooth="yes"/>
      <point x="177" y="435" type="line"/>
      <point x="177" y="455" type="line"/>
      <point x="184" y="611" type="line"/>
      <point x="124" y="611" type="line"/>
      <point x="92" y="448" type="line"/>
      <point x="133" y="481" type="line"/>
      <point x="9" y="466" type="line"/>
      <point x="9" y="422" type="line"/>
      <point x="92" y="422" type="line"/>
      <point x="92" y="186" type="line" smooth="yes"/>
      <point x="92" y="147"/>
      <point x="91" y="126"/>
      <point x="91" y="101" type="curve" smooth="yes"/>
      <point x="91" y="23"/>
      <point x="135" y="-13"/>
    </contour>
  </outline>
</glyph>
<glyph name="uni001E" format="2">
  <advance width="1087"/>
  <unicode hex="001E"/>
  <outline>
    <contour>
      <point x="1036" y="536" type="curve" smooth="yes"/>
      <point x="1074" y="536"/>
      <point x="1103" y="562"/>
      <point x="1103" y="600" type="curve" smooth="yes"/>
      <point x="1103" y="637"/>
      <point x="1074" y="664"/>
      <point x="1036" y="664" type="curve" smooth="yes"/>
      <point x="998" y="664"/>
      <point x="969" y="637"/>
      <point x="969" y="600" type="curve" smooth="yes"/>
      <point x="969" y="562"/>
      <point x="998" y="536"/>
    </contour>
    <contour>
      <point x="437" y="-13" type="curve" smooth="yes"/>
      <point x="501" y="-13"/>
      <point x="567" y="18"/>
      <point x="622" y="91" type="curve"/>
      <point x="637" y="91" type="line"/>
      <point x="622" y="134" type="line"/>
      <point x="573" y="84"/>
      <point x="521" y="58"/>
      <point x="471" y="58" type="curve" smooth="yes"/>
      <point x="417" y="58"/>
      <point x="391" y="89"/>
      <point x="391" y="176" type="curve" smooth="yes"/>
      <point x="391" y="342" type="line"/>
      <point x="396" y="471" type="line"/>
      <point x="386" y="481" type="line"/>
      <point x="239" y="467" type="line"/>
      <point x="239" y="431" type="line"/>
      <point x="331" y="411" type="line"/>
      <point x="310" y="431" type="line"/>
      <point x="307" y="167" type="line" smooth="yes"/>
      <point x="306" y="35"/>
      <point x="356" y="-13"/>
    </contour>
    <contour>
      <point x="624" y="-8" type="line"/>
      <point x="763" y="0" type="line"/>
      <point x="763" y="36" type="line"/>
      <point x="695" y="50" type="line"/>
      <point x="695" y="342" type="line"/>
      <point x="698" y="471" type="line"/>
      <point x="688" y="481" type="line"/>
      <point x="543" y="467" type="line"/>
      <point x="543" y="431" type="line"/>
      <point x="614" y="417" type="line"/>
      <point x="611" y="111" type="line"/>
      <point x="611" y="109" type="line"/>
    </contour>
  </outline>
</glyph>
